<svg width="598" height="24" viewBox="0 0 598 24" fill="none" xmlns="http://www.w3.org/2000/svg">
<g clip-path="url(#clip0_151_1087)">
<mask id="mask0_151_1087" style="mask-type:luminance" maskUnits="userSpaceOnUse" x="0" y="0" width="24" height="24">
<path d="M23.4999 23.5V0.500071H0.5V23.5H23.4999Z" fill="white" stroke="white"/>
</mask>
<g mask="url(#mask0_151_1087)">
<path d="M5.15624 14.1562L1.25625 7.75736C0.758906 7.01299 0.46875 6.11862 0.46875 5.15628C0.46875 2.56738 2.56734 0.46879 5.15624 0.46879C7.74513 0.46879 9.84372 2.56738 9.84372 5.15628C9.84372 6.11862 9.55357 7.01299 9.05622 7.75736L5.15624 14.1562Z" stroke="white" stroke-miterlimit="10" stroke-linecap="round" stroke-linejoin="round"/>
<path d="M7.03124 5.15626C7.03124 6.19172 6.19171 7.03125 5.15624 7.03125C4.12078 7.03125 3.28125 6.19172 3.28125 5.15626C3.28125 4.12079 4.12078 3.28126 5.15624 3.28126C6.19171 3.28126 7.03124 4.12079 7.03124 5.15626Z" stroke="white" stroke-miterlimit="10" stroke-linecap="round" stroke-linejoin="round"/>
<path d="M18.8437 21.6563C19.3617 21.6563 19.7812 22.0763 19.7812 22.5938C19.7812 23.1117 19.3617 23.5312 18.8437 23.5312C18.3258 23.5312 17.9062 23.1117 17.9062 22.5938C17.9062 22.0763 18.3258 21.6563 18.8437 21.6563ZM18.8437 21.6563L14.9437 15.5386C14.4464 14.7942 14.1562 13.8999 14.1562 12.9375C14.1562 10.3486 16.2548 8.25005 18.8437 8.25005C21.4326 8.25005 23.5312 10.3486 23.5312 12.9375C23.5312 13.8999 23.2411 14.7942 22.7437 15.5386L18.8437 21.6563Z" stroke="white" stroke-miterlimit="10" stroke-linecap="round" stroke-linejoin="round"/>
<path d="M20.7187 12.9375C20.7187 13.973 19.8792 14.8125 18.8437 14.8125C17.8083 14.8125 16.9688 13.973 16.9688 12.9375C16.9688 11.902 17.8083 11.0625 18.8437 11.0625C19.8792 11.0625 20.7187 11.902 20.7187 12.9375Z" stroke="white" stroke-miterlimit="10" stroke-linecap="round" stroke-linejoin="round"/>
<path d="M6.09374 15.0938C6.09374 15.6117 5.67421 16.0312 5.15625 16.0312C4.63828 16.0312 4.21875 15.6117 4.21875 15.0938C4.21875 14.5763 4.63828 14.1563 5.15625 14.1563C5.67421 14.1563 6.09374 14.5763 6.09374 15.0938Z" stroke="white" stroke-miterlimit="10" stroke-linecap="round" stroke-linejoin="round"/>
<path d="M11.2969 22.5625C11.2796 22.5625 11.2656 22.5765 11.2656 22.5938C11.2656 22.611 11.2796 22.625 11.2969 22.625C11.3141 22.625 11.3281 22.611 11.3281 22.5938C11.3281 22.5765 11.3141 22.5625 11.2969 22.5625Z" fill="white" stroke="white"/>
<path d="M6.09374 15.0938H10.125C11.1604 15.0938 12 15.9333 12 16.9688C12 18.0042 11.1604 18.8438 10.125 18.8438H4.49999C3.46453 18.8438 2.625 19.6833 2.625 20.7188C2.625 21.7542 3.46453 22.5938 4.49999 22.5938H9.18748" stroke="white" stroke-miterlimit="10" stroke-linecap="round" stroke-linejoin="round"/>
<path d="M13.4062 22.5938H17.9062" stroke="white" stroke-miterlimit="10" stroke-linecap="round" stroke-linejoin="round"/>
</g>
</g>
<path d="M35.1985 6.59091H37.196L40.669 15.071H40.7969L44.2699 6.59091H46.2674V17.5H44.7013V9.60582H44.6001L41.3828 17.484H40.0831L36.8658 9.6005H36.7646V17.5H35.1985V6.59091ZM57.5366 12.0455C57.5366 13.2102 57.3236 14.2116 56.8974 15.0497C56.4713 15.8842 55.8871 16.527 55.1449 16.978C54.4063 17.4254 53.5665 17.6491 52.6254 17.6491C51.6808 17.6491 50.8374 17.4254 50.0952 16.978C49.3566 16.527 48.7742 15.8825 48.3481 15.0444C47.9219 14.2063 47.7089 13.2067 47.7089 12.0455C47.7089 10.8807 47.9219 9.88104 48.3481 9.04652C48.7742 8.20845 49.3566 7.5657 50.0952 7.11825C50.8374 6.66726 51.6808 6.44176 52.6254 6.44176C53.5665 6.44176 54.4063 6.66726 55.1449 7.11825C55.8871 7.5657 56.4713 8.20845 56.8974 9.04652C57.3236 9.88104 57.5366 10.8807 57.5366 12.0455ZM55.9067 12.0455C55.9067 11.1577 55.7628 10.4102 55.4752 9.80291C55.1911 9.19212 54.8005 8.73047 54.3033 8.41797C53.8097 8.10192 53.2504 7.94389 52.6254 7.94389C51.9969 7.94389 51.4358 8.10192 50.9422 8.41797C50.4486 8.73047 50.0579 9.19212 49.7703 9.80291C49.4862 10.4102 49.3442 11.1577 49.3442 12.0455C49.3442 12.9332 49.4862 13.6825 49.7703 14.2933C50.0579 14.9006 50.4486 15.3622 50.9422 15.6783C51.4358 15.9908 51.9969 16.147 52.6254 16.147C53.2504 16.147 53.8097 15.9908 54.3033 15.6783C54.8005 15.3622 55.1911 14.9006 55.4752 14.2933C55.7628 13.6825 55.9067 12.9332 55.9067 12.0455ZM68.0495 10.1385H66.3875C66.3236 9.78338 66.2047 9.47088 66.0306 9.20099C65.8566 8.93111 65.6436 8.70206 65.3914 8.51385C65.1393 8.32564 64.857 8.18359 64.5445 8.08771C64.2355 7.99183 63.9071 7.94389 63.5591 7.94389C62.9305 7.94389 62.3676 8.10192 61.8705 8.41797C61.3769 8.73402 60.9863 9.19744 60.6986 9.80824C60.4145 10.419 60.2725 11.1648 60.2725 12.0455C60.2725 12.9332 60.4145 13.6825 60.6986 14.2933C60.9863 14.9041 61.3787 15.3658 61.8758 15.6783C62.373 15.9908 62.9323 16.147 63.5537 16.147C63.8982 16.147 64.2249 16.1009 64.5338 16.0085C64.8463 15.9126 65.1287 15.7724 65.3808 15.5877C65.6329 15.4031 65.846 15.1776 66.02 14.9112C66.1975 14.6413 66.3201 14.3324 66.3875 13.9844L68.0495 13.9897C67.9607 14.5259 67.7885 15.0195 67.5328 15.4705C67.2806 15.918 66.9557 16.305 66.558 16.6317C66.1638 16.9549 65.7128 17.2053 65.205 17.3828C64.6972 17.5604 64.1432 17.6491 63.5431 17.6491C62.5985 17.6491 61.7569 17.4254 61.0182 16.978C60.2796 16.527 59.6972 15.8825 59.2711 15.0444C58.8485 14.2063 58.6372 13.2067 58.6372 12.0455C58.6372 10.8807 58.8502 9.88104 59.2764 9.04652C59.7025 8.20845 60.2849 7.5657 61.0235 7.11825C61.7622 6.66726 62.602 6.44176 63.5431 6.44176C64.1219 6.44176 64.6617 6.52521 65.1624 6.69212C65.6667 6.85547 66.1194 7.09695 66.5207 7.41655C66.922 7.7326 67.254 8.11967 67.5168 8.57777C67.7796 9.03232 67.9571 9.55256 68.0495 10.1385ZM75.891 17.5L72.2262 12.6101H71.065V17.5H69.419V6.59091H71.065V11.1985H71.603L75.7258 6.59091H77.734L73.3714 11.4755L77.8991 17.5H75.891ZM78.8239 17.5V6.59091H82.8189C83.5931 6.59091 84.2341 6.71875 84.7419 6.97443C85.2497 7.22656 85.6297 7.56925 85.8818 8.00249C86.1339 8.43217 86.26 8.9169 86.26 9.45668C86.26 9.91122 86.1765 10.2947 86.0096 10.6072C85.8427 10.9162 85.619 11.1648 85.3385 11.353C85.0615 11.5376 84.7561 11.6726 84.4223 11.7578V11.8643C84.7845 11.8821 85.1378 11.9993 85.4823 12.2159C85.8303 12.429 86.1179 12.7326 86.3452 13.1268C86.5725 13.521 86.6861 14.0004 86.6861 14.565C86.6861 15.1225 86.5547 15.6232 86.2919 16.0671C86.0327 16.5075 85.6314 16.8572 85.0881 17.1165C84.5448 17.3722 83.8505 17.5 83.0054 17.5H78.8239ZM80.4698 16.0884H82.8456C83.6339 16.0884 84.1985 15.9357 84.5395 15.6303C84.8804 15.3249 85.0508 14.9432 85.0508 14.4851C85.0508 14.1406 84.9638 13.8246 84.7898 13.5369C84.6158 13.2493 84.3672 13.0202 84.0441 12.8498C83.7245 12.6793 83.3445 12.5941 82.9042 12.5941H80.4698V16.0884ZM80.4698 11.3104H82.6751C83.0444 11.3104 83.3765 11.2393 83.6712 11.0973C83.9695 10.9553 84.2056 10.7564 84.3797 10.5007C84.5572 10.2415 84.646 9.93608 84.646 9.58452C84.646 9.13352 84.488 8.75533 84.1719 8.44993C83.8559 8.14453 83.3711 7.99183 82.7177 7.99183H80.4698V11.3104ZM88.9599 17.5H87.2127L91.1385 6.59091H93.0401L96.9659 17.5H95.2188L92.1346 8.57244H92.0494L88.9599 17.5ZM89.2528 13.228H94.9205V14.6129H89.2528V13.228ZM99.8855 16.0085L99.8056 16.5891C99.7524 17.0153 99.6618 17.4592 99.534 17.9208C99.4097 18.386 99.2801 18.8175 99.1451 19.2152C99.0137 19.6129 98.9054 19.929 98.8202 20.1634H97.6909C97.7371 19.9432 97.801 19.6449 97.8827 19.2685C97.9644 18.8956 98.0443 18.4783 98.1224 18.0167C98.2005 17.555 98.2591 17.0845 98.2982 16.6051L98.3514 16.0085H99.8855ZM105.629 17.6491V16.2003H106.284C106.558 16.2003 106.783 16.1541 106.961 16.0618C107.142 15.9695 107.289 15.8452 107.403 15.6889C107.52 15.5291 107.618 15.3551 107.696 15.1669L107.85 14.7781L104.015 6.59091H105.762L108.622 12.8977L111.169 6.59091H112.895L109.123 15.609C108.963 15.9712 108.779 16.3068 108.569 16.6158C108.363 16.9247 108.088 17.1751 107.744 17.3668C107.399 17.555 106.943 17.6491 106.375 17.6491H105.629ZM113.026 17.5V16.0724L113.345 16.0618C113.778 16.0511 114.119 15.9038 114.368 15.6197C114.62 15.3356 114.803 14.8775 114.917 14.2454C115.034 13.6133 115.112 12.7699 115.151 11.7152L115.337 6.59091H122.235V17.5H120.611V7.98651H116.887L116.717 12.152C116.671 13.3203 116.554 14.3022 116.365 15.0977C116.177 15.8896 115.858 16.4879 115.407 16.8928C114.959 17.2976 114.322 17.5 113.494 17.5H113.026ZM124.954 17.6012C124.663 17.6012 124.412 17.4982 124.203 17.2923C123.993 17.0827 123.889 16.8306 123.889 16.5359C123.889 16.2447 123.993 15.9961 124.203 15.7901C124.412 15.5806 124.663 15.4759 124.954 15.4759C125.245 15.4759 125.496 15.5806 125.705 15.7901C125.915 15.9961 126.019 16.2447 126.019 16.5359C126.019 16.7312 125.97 16.9105 125.87 17.0739C125.774 17.2337 125.646 17.3615 125.487 17.4574C125.327 17.5533 125.149 17.6012 124.954 17.6012ZM139.935 10.1385H138.273C138.209 9.78338 138.09 9.47088 137.916 9.20099C137.742 8.93111 137.529 8.70206 137.277 8.51385C137.025 8.32564 136.743 8.18359 136.43 8.08771C136.121 7.99183 135.793 7.94389 135.445 7.94389C134.816 7.94389 134.253 8.10192 133.756 8.41797C133.263 8.73402 132.872 9.19744 132.584 9.80824C132.3 10.419 132.158 11.1648 132.158 12.0455C132.158 12.9332 132.3 13.6825 132.584 14.2933C132.872 14.9041 133.264 15.3658 133.762 15.6783C134.259 15.9908 134.818 16.147 135.439 16.147C135.784 16.147 136.111 16.1009 136.42 16.0085C136.732 15.9126 137.014 15.7724 137.267 15.5877C137.519 15.4031 137.732 15.1776 137.906 14.9112C138.083 14.6413 138.206 14.3324 138.273 13.9844L139.935 13.9897C139.846 14.5259 139.674 15.0195 139.419 15.4705C139.166 15.918 138.841 16.305 138.444 16.6317C138.05 16.9549 137.599 17.2053 137.091 17.3828C136.583 17.5604 136.029 17.6491 135.429 17.6491C134.484 17.6491 133.643 17.4254 132.904 16.978C132.165 16.527 131.583 15.8825 131.157 15.0444C130.734 14.2063 130.523 13.2067 130.523 12.0455C130.523 10.8807 130.736 9.88104 131.162 9.04652C131.588 8.20845 132.171 7.5657 132.909 7.11825C133.648 6.66726 134.488 6.44176 135.429 6.44176C136.008 6.44176 136.547 6.52521 137.048 6.69212C137.552 6.85547 138.005 7.09695 138.406 7.41655C138.808 7.7326 139.14 8.11967 139.403 8.57777C139.665 9.03232 139.843 9.55256 139.935 10.1385ZM142.153 17.5H140.406L144.332 6.59091H146.233L150.159 17.5H148.412L145.328 8.57244H145.243L142.153 17.5ZM142.446 13.228H148.114V14.6129H142.446V13.228ZM150.309 20.1367V16.1044H151.028C151.273 15.8984 151.502 15.6055 151.715 15.2255C151.928 14.8455 152.109 14.3324 152.258 13.6861C152.408 13.0398 152.511 12.2106 152.567 11.1985L152.823 6.59091H159.551V16.1044H160.786V20.1207H159.21V17.5H151.886V20.1367H150.309ZM152.967 16.1044H157.974V8.00781H154.314L154.144 11.1985C154.098 11.9691 154.022 12.6616 153.915 13.2759C153.812 13.8903 153.679 14.4336 153.515 14.9059C153.356 15.3746 153.173 15.7741 152.967 16.1044ZM171.466 12.0455C171.466 13.2102 171.253 14.2116 170.827 15.0497C170.4 15.8842 169.816 16.527 169.074 16.978C168.335 17.4254 167.496 17.6491 166.555 17.6491C165.61 17.6491 164.767 17.4254 164.024 16.978C163.286 16.527 162.703 15.8825 162.277 15.0444C161.851 14.2063 161.638 13.2067 161.638 12.0455C161.638 10.8807 161.851 9.88104 162.277 9.04652C162.703 8.20845 163.286 7.5657 164.024 7.11825C164.767 6.66726 165.61 6.44176 166.555 6.44176C167.496 6.44176 168.335 6.66726 169.074 7.11825C169.816 7.5657 170.4 8.20845 170.827 9.04652C171.253 9.88104 171.466 10.8807 171.466 12.0455ZM169.836 12.0455C169.836 11.1577 169.692 10.4102 169.404 9.80291C169.12 9.19212 168.73 8.73047 168.232 8.41797C167.739 8.10192 167.18 7.94389 166.555 7.94389C165.926 7.94389 165.365 8.10192 164.871 8.41797C164.378 8.73047 163.987 9.19212 163.699 9.80291C163.415 10.4102 163.273 11.1577 163.273 12.0455C163.273 12.9332 163.415 13.6825 163.699 14.2933C163.987 14.9006 164.378 15.3622 164.871 15.6783C165.365 15.9908 165.926 16.147 166.555 16.147C167.18 16.147 167.739 15.9908 168.232 15.6783C168.73 15.3622 169.12 14.9006 169.404 14.2933C169.692 13.6825 169.836 12.9332 169.836 12.0455ZM172.918 17.5V6.59091H176.913C177.687 6.59091 178.328 6.71875 178.836 6.97443C179.344 7.22656 179.724 7.56925 179.976 8.00249C180.228 8.43217 180.354 8.9169 180.354 9.45668C180.354 9.91122 180.27 10.2947 180.104 10.6072C179.937 10.9162 179.713 11.1648 179.432 11.353C179.155 11.5376 178.85 11.6726 178.516 11.7578V11.8643C178.878 11.8821 179.232 11.9993 179.576 12.2159C179.924 12.429 180.212 12.7326 180.439 13.1268C180.666 13.521 180.78 14.0004 180.78 14.565C180.78 15.1225 180.649 15.6232 180.386 16.0671C180.127 16.5075 179.725 16.8572 179.182 17.1165C178.639 17.3722 177.944 17.5 177.099 17.5H172.918ZM174.564 16.0884H176.94C177.728 16.0884 178.292 15.9357 178.633 15.6303C178.974 15.3249 179.145 14.9432 179.145 14.4851C179.145 14.1406 179.058 13.8246 178.884 13.5369C178.71 13.2493 178.461 13.0202 178.138 12.8498C177.818 12.6793 177.438 12.5941 176.998 12.5941H174.564V16.0884ZM174.564 11.3104H176.769C177.138 11.3104 177.47 11.2393 177.765 11.0973C178.063 10.9553 178.3 10.7564 178.474 10.5007C178.651 10.2415 178.74 9.93608 178.74 9.58452C178.74 9.13352 178.582 8.75533 178.266 8.44993C177.95 8.14453 177.465 7.99183 176.812 7.99183H174.564V11.3104ZM183.054 17.5H181.307L185.232 6.59091H187.134L191.06 17.5H189.313L186.229 8.57244H186.143L183.054 17.5ZM183.347 13.228H189.014V14.6129H183.347V13.228ZM199.77 17.5H198.118V8.00249H196.052C195.512 8.00249 195.073 8.08416 194.736 8.24751C194.399 8.40732 194.152 8.63814 193.995 8.93999C193.839 9.24183 193.761 9.59872 193.761 10.0107C193.761 10.419 193.839 10.7688 193.995 11.06C194.152 11.3512 194.397 11.5732 194.731 11.7259C195.064 11.8786 195.499 11.9549 196.036 11.9549H198.832V13.3718H195.881C195.039 13.3718 194.338 13.2315 193.777 12.951C193.22 12.6705 192.8 12.2781 192.52 11.7738C192.243 11.266 192.104 10.6783 192.104 10.0107C192.104 9.33949 192.243 8.74822 192.52 8.23686C192.797 7.72195 193.214 7.31889 193.772 7.0277C194.333 6.73651 195.034 6.59091 195.876 6.59091H199.77V17.5ZM194.384 12.5781H196.206L193.559 17.5H191.689L194.384 12.5781ZM206.265 11.353V12.7379H201.428V11.353H206.265ZM214.387 17.5L210.722 12.6101H209.561V17.5H207.915V6.59091H209.561V11.1985H210.099L214.222 6.59091H216.23L211.868 11.4755L216.395 17.5H214.387ZM218.242 17.5H216.495L220.42 6.59091H222.322L226.248 17.5H224.501L221.416 8.57244H221.331L218.242 17.5ZM218.535 13.228H224.202V14.6129H218.535V13.228ZM227.223 17.5V6.59091H231.112C231.96 6.59091 232.663 6.74538 233.221 7.05433C233.779 7.36328 234.196 7.78587 234.473 8.32209C234.75 8.85476 234.888 9.4549 234.888 10.1225C234.888 10.7937 234.748 11.3974 234.467 11.9336C234.19 12.4663 233.771 12.8888 233.21 13.2013C232.653 13.5103 231.951 13.6648 231.106 13.6648H228.432V12.2692H230.957C231.493 12.2692 231.928 12.1768 232.262 11.9922C232.596 11.804 232.841 11.5483 232.997 11.2251C233.154 10.902 233.232 10.5344 233.232 10.1225C233.232 9.71058 233.154 9.34482 232.997 9.02521C232.841 8.70561 232.594 8.45526 232.257 8.27415C231.923 8.09304 231.483 8.00249 230.936 8.00249H228.869V17.5H227.223ZM236.218 17.5V6.59091H243.057V8.00781H237.864V11.3317H242.7V12.7433H237.864V16.0831H243.121V17.5H236.218ZM244.118 8.00781V6.59091H252.561V8.00781H249.157V17.5H247.516V8.00781H244.118ZM253.826 17.5V6.59091H255.472V11.3317H260.911V6.59091H262.562V17.5H260.911V12.7433H255.472V17.5H253.826ZM265.281 17.5H263.534L267.459 6.59091H269.361L273.287 17.5H271.54L268.455 8.57244H268.37L265.281 17.5ZM265.574 13.228H271.241V14.6129H265.574V13.228ZM281.997 17.5H280.345V8.00249H278.279C277.739 8.00249 277.3 8.08416 276.963 8.24751C276.625 8.40732 276.379 8.63814 276.222 8.93999C276.066 9.24183 275.988 9.59872 275.988 10.0107C275.988 10.419 276.066 10.7688 276.222 11.06C276.379 11.3512 276.624 11.5732 276.957 11.7259C277.291 11.8786 277.726 11.9549 278.263 11.9549H281.059V13.3718H278.108C277.266 13.3718 276.565 13.2315 276.004 12.951C275.446 12.6705 275.027 12.2781 274.747 11.7738C274.47 11.266 274.331 10.6783 274.331 10.0107C274.331 9.33949 274.47 8.74822 274.747 8.23686C275.024 7.72195 275.441 7.31889 275.999 7.0277C276.56 6.73651 277.261 6.59091 278.103 6.59091H281.997V17.5ZM276.611 12.5781H278.433L275.786 17.5H273.916L276.611 12.5781ZM287.941 17.6491V16.2003H288.596C288.87 16.2003 289.095 16.1541 289.273 16.0618C289.454 15.9695 289.601 15.8452 289.715 15.6889C289.832 15.5291 289.93 15.3551 290.008 15.1669L290.162 14.7781L286.327 6.59091H288.074L290.935 12.8977L293.481 6.59091H295.207L291.435 15.609C291.276 15.9712 291.091 16.3068 290.881 16.6158C290.675 16.9247 290.4 17.1751 290.056 17.3668C289.711 17.555 289.255 17.6491 288.687 17.6491H287.941ZM295.338 17.5V16.0724L295.657 16.0618C296.091 16.0511 296.431 15.9038 296.68 15.6197C296.932 15.3356 297.115 14.8775 297.229 14.2454C297.346 13.6133 297.424 12.7699 297.463 11.7152L297.65 6.59091H304.548V17.5H302.923V7.98651H299.2L299.029 12.152C298.983 13.3203 298.866 14.3022 298.678 15.0977C298.489 15.8896 298.17 16.4879 297.719 16.8928C297.271 17.2976 296.634 17.5 295.806 17.5H295.338ZM306.345 6.59091H307.975V14.6023H308.076L313.626 6.59091H315.15V17.5H313.504V9.49929H313.402L307.863 17.5H306.345V6.59091ZM326.629 16.0458L326.485 20.0781H324.845V17.5H324.078V16.0458H326.629ZM316.951 17.5V6.59091H318.527V16.0724H323.79V6.59091H325.372V17.5H316.951ZM328.757 17.5H327.009L330.935 6.59091H332.837L336.763 17.5H335.015L331.931 8.57244H331.846L328.757 17.5ZM329.05 13.228H334.717V14.6129H329.05V13.228ZM339.682 16.0085L339.602 16.5891C339.549 17.0153 339.458 17.4592 339.331 17.9208C339.206 18.386 339.077 18.8175 338.942 19.2152C338.81 19.6129 338.702 19.929 338.617 20.1634H337.488C337.534 19.9432 337.598 19.6449 337.679 19.2685C337.761 18.8956 337.841 18.4783 337.919 18.0167C337.997 17.555 338.056 17.0845 338.095 16.6051L338.148 16.0085H339.682ZM344.504 17.5V16.3068L348.195 12.4822C348.59 12.0668 348.915 11.7028 349.17 11.3903C349.429 11.0742 349.623 10.7741 349.751 10.4901C349.879 10.206 349.943 9.90412 349.943 9.58452C349.943 9.2223 349.857 8.9098 349.687 8.64702C349.516 8.38068 349.284 8.17649 348.989 8.03445C348.694 7.88885 348.362 7.81605 347.993 7.81605C347.602 7.81605 347.261 7.89595 346.97 8.05575C346.679 8.21555 346.455 8.44105 346.299 8.73224C346.143 9.02344 346.065 9.36435 346.065 9.75497H344.493C344.493 9.09091 344.646 8.5103 344.951 8.01314C345.257 7.51598 345.676 7.13068 346.209 6.85724C346.741 6.58026 347.347 6.44176 348.025 6.44176C348.71 6.44176 349.314 6.57848 349.836 6.85192C350.362 7.1218 350.772 7.49112 351.067 7.95987C351.361 8.42507 351.509 8.95064 351.509 9.53658C351.509 9.94141 351.432 10.3374 351.28 10.7244C351.13 11.1115 350.869 11.543 350.497 12.0188C350.124 12.4911 349.605 13.0646 348.941 13.7393L346.773 16.0085V16.0884H351.684V17.5H344.504ZM356.901 17.6811C356.06 17.6776 355.34 17.4556 354.744 17.0153C354.147 16.5749 353.691 15.9339 353.375 15.0923C353.059 14.2507 352.901 13.2369 352.901 12.0508C352.901 10.8683 353.059 9.85795 353.375 9.01989C353.695 8.18182 354.153 7.54261 354.749 7.10227C355.349 6.66193 356.067 6.44176 356.901 6.44176C357.736 6.44176 358.451 6.66371 359.048 7.1076C359.644 7.54794 360.101 8.18714 360.417 9.02521C360.736 9.85973 360.896 10.8683 360.896 12.0508C360.896 13.2404 360.738 14.256 360.422 15.0977C360.106 15.9357 359.65 16.5767 359.053 17.0206C358.457 17.4609 357.739 17.6811 356.901 17.6811ZM356.901 16.2589C357.64 16.2589 358.217 15.8984 358.632 15.1776C359.051 14.4567 359.261 13.4144 359.261 12.0508C359.261 11.1452 359.165 10.38 358.973 9.75497C358.785 9.12642 358.513 8.65057 358.158 8.32741C357.807 8.00071 357.388 7.83736 356.901 7.83736C356.166 7.83736 355.589 8.19957 355.17 8.92401C354.751 9.64844 354.54 10.6907 354.536 12.0508C354.536 12.9599 354.63 13.7287 354.818 14.3572C355.01 14.9822 355.282 15.4563 355.633 15.7795C355.985 16.0991 356.408 16.2589 356.901 16.2589ZM371.396 10.1385H369.734C369.67 9.78338 369.551 9.47088 369.377 9.20099C369.203 8.93111 368.99 8.70206 368.738 8.51385C368.486 8.32564 368.203 8.18359 367.891 8.08771C367.582 7.99183 367.253 7.94389 366.905 7.94389C366.277 7.94389 365.714 8.10192 365.217 8.41797C364.723 8.73402 364.333 9.19744 364.045 9.80824C363.761 10.419 363.619 11.1648 363.619 12.0455C363.619 12.9332 363.761 13.6825 364.045 14.2933C364.333 14.9041 364.725 15.3658 365.222 15.6783C365.719 15.9908 366.279 16.147 366.9 16.147C367.244 16.147 367.571 16.1009 367.88 16.0085C368.193 15.9126 368.475 15.7724 368.727 15.5877C368.979 15.4031 369.192 15.1776 369.366 14.9112C369.544 14.6413 369.666 14.3324 369.734 13.9844L371.396 13.9897C371.307 14.5259 371.135 15.0195 370.879 15.4705C370.627 15.918 370.302 16.305 369.904 16.6317C369.51 16.9549 369.059 17.2053 368.551 17.3828C368.043 17.5604 367.49 17.6491 366.889 17.6491C365.945 17.6491 365.103 17.4254 364.365 16.978C363.626 16.527 363.043 15.8825 362.617 15.0444C362.195 14.2063 361.983 13.2067 361.983 12.0455C361.983 10.8807 362.197 9.88104 362.623 9.04652C363.049 8.20845 363.631 7.5657 364.37 7.11825C365.108 6.66726 365.948 6.44176 366.889 6.44176C367.468 6.44176 368.008 6.52521 368.509 6.69212C369.013 6.85547 369.466 7.09695 369.867 7.41655C370.268 7.7326 370.6 8.11967 370.863 8.57777C371.126 9.03232 371.303 9.55256 371.396 10.1385ZM372.616 17.5V16.3068L376.308 12.4822C376.702 12.0668 377.027 11.7028 377.282 11.3903C377.542 11.0742 377.735 10.7741 377.863 10.4901C377.991 10.206 378.055 9.90412 378.055 9.58452C378.055 9.2223 377.97 8.9098 377.799 8.64702C377.629 8.38068 377.396 8.17649 377.101 8.03445C376.807 7.88885 376.474 7.81605 376.105 7.81605C375.715 7.81605 375.374 7.89595 375.082 8.05575C374.791 8.21555 374.568 8.44105 374.411 8.73224C374.255 9.02344 374.177 9.36435 374.177 9.75497H372.606C372.606 9.09091 372.758 8.5103 373.064 8.01314C373.369 7.51598 373.788 7.13068 374.321 6.85724C374.853 6.58026 375.459 6.44176 376.137 6.44176C376.822 6.44176 377.426 6.57848 377.948 6.85192C378.474 7.1218 378.884 7.49112 379.179 7.95987C379.473 8.42507 379.621 8.95064 379.621 9.53658C379.621 9.94141 379.544 10.3374 379.392 10.7244C379.243 11.1115 378.982 11.543 378.609 12.0188C378.236 12.4911 377.717 13.0646 377.053 13.7393L374.885 16.0085V16.0884H379.797V17.5H372.616Z" fill="#34344E"/>
<defs>
<clipPath id="clip0_151_1087">
<rect width="24" height="24" fill="white"/>
</clipPath>
</defs>
</svg>
