<svg width="83" height="24" viewBox="0 0 83 24" fill="none" xmlns="http://www.w3.org/2000/svg">
<circle cx="6" cy="6" r="6" transform="matrix(-1 0 0 1 12 6)" fill="#F49C89"/>
<path d="M22.6605 8.00781V6.59091H31.1033V8.00781H27.6996V17.5H26.0589V8.00781H22.6605ZM41.3765 12.0455C41.3765 13.2102 41.1634 14.2116 40.7373 15.0497C40.3111 15.8842 39.727 16.527 38.9848 16.978C38.2461 17.4254 37.4063 17.6491 36.4653 17.6491C35.5206 17.6491 34.6773 17.4254 33.9351 16.978C33.1964 16.527 32.614 15.8825 32.1879 15.0444C31.7618 14.2063 31.5487 13.2067 31.5487 12.0455C31.5487 10.8807 31.7618 9.88104 32.1879 9.04652C32.614 8.20845 33.1964 7.5657 33.9351 7.11825C34.6773 6.66726 35.5206 6.44176 36.4653 6.44176C37.4063 6.44176 38.2461 6.66726 38.9848 7.11825C39.727 7.5657 40.3111 8.20845 40.7373 9.04652C41.1634 9.88104 41.3765 10.8807 41.3765 12.0455ZM39.7465 12.0455C39.7465 11.1577 39.6027 10.4102 39.315 9.80291C39.0309 9.19212 38.6403 8.73047 38.1432 8.41797C37.6496 8.10192 37.0903 7.94389 36.4653 7.94389C35.8367 7.94389 35.2756 8.10192 34.782 8.41797C34.2884 8.73047 33.8978 9.19212 33.6101 9.80291C33.326 10.4102 33.184 11.1577 33.184 12.0455C33.184 12.9332 33.326 13.6825 33.6101 14.2933C33.8978 14.9006 34.2884 15.3622 34.782 15.6783C35.2756 15.9908 35.8367 16.147 36.4653 16.147C37.0903 16.147 37.6496 15.9908 38.1432 15.6783C38.6403 15.3622 39.0309 14.9006 39.315 14.2933C39.6027 13.6825 39.7465 12.9332 39.7465 12.0455ZM51.8893 10.1385H50.2274C50.1635 9.78338 50.0445 9.47088 49.8705 9.20099C49.6965 8.93111 49.4834 8.70206 49.2313 8.51385C48.9792 8.32564 48.6968 8.18359 48.3843 8.08771C48.0754 7.99183 47.7469 7.94389 47.3989 7.94389C46.7703 7.94389 46.2075 8.10192 45.7103 8.41797C45.2167 8.73402 44.8261 9.19744 44.5385 9.80824C44.2544 10.419 44.1123 11.1648 44.1123 12.0455C44.1123 12.9332 44.2544 13.6825 44.5385 14.2933C44.8261 14.9041 45.2185 15.3658 45.7157 15.6783C46.2128 15.9908 46.7721 16.147 47.3936 16.147C47.738 16.147 48.0647 16.1009 48.3737 16.0085C48.6862 15.9126 48.9685 15.7724 49.2206 15.5877C49.4728 15.4031 49.6858 15.1776 49.8598 14.9112C50.0374 14.6413 50.1599 14.3324 50.2274 13.9844L51.8893 13.9897C51.8005 14.5259 51.6283 15.0195 51.3726 15.4705C51.1205 15.918 50.7956 16.305 50.3978 16.6317C50.0037 16.9549 49.5527 17.2053 49.0449 17.3828C48.537 17.5604 47.9831 17.6491 47.3829 17.6491C46.4383 17.6491 45.5967 17.4254 44.8581 16.978C44.1194 16.527 43.537 15.8825 43.1109 15.0444C42.6883 14.2063 42.477 13.2067 42.477 12.0455C42.477 10.8807 42.6901 9.88104 43.1162 9.04652C43.5424 8.20845 44.1248 7.5657 44.8634 7.11825C45.602 6.66726 46.4419 6.44176 47.3829 6.44176C47.9618 6.44176 48.5015 6.52521 49.0022 6.69212C49.5065 6.85547 49.9593 7.09695 50.3605 7.41655C50.7618 7.7326 51.0939 8.11967 51.3566 8.57777C51.6194 9.03232 51.797 9.55256 51.8893 10.1385ZM53.2589 17.5V6.59091H54.9048V11.3317H60.3434V6.59091H61.9947V17.5H60.3434V12.7433H54.9048V17.5H53.2589ZM63.7917 17.5V6.59091H65.4376V11.8004H65.5708L70.1464 6.59091H72.2185L67.8187 11.5021L72.2345 17.5H70.253L66.7267 12.6261L65.4376 14.1069V17.5H63.7917ZM74.0741 17.5H72.327L76.2528 6.59091H78.1544L82.0802 17.5H80.333L77.2488 8.57244H77.1636L74.0741 17.5ZM74.3671 13.228H80.0347V14.6129H74.3671V13.228Z" fill="white"/>
</svg>
