<svg width="1920" height="731" viewBox="0 0 1920 731" fill="none" xmlns="http://www.w3.org/2000/svg">
<path d="M-38.0752 614.024C-36.1857 572.454 -34.4492 526.27 -22.4516 486.278C-14.3216 459.178 -5.19221 431.432 13.2376 409.386C45.5085 370.781 95.0149 344.008 144.66 336.169C211.48 325.618 274.369 337.501 326.476 380.589C399.358 440.857 459.907 508.064 511.814 587.066C530.111 614.913 547.746 639.747 554.703 671.923C557.496 684.84 562.909 712.918 554.703 725.227C543.657 741.796 498.556 710.537 487.613 703.477C443.544 675.045 412.573 629.262 392.493 581.705C349.459 479.783 333.882 361.481 393.871 263.412C411.88 233.972 434.365 206.24 456.366 179.627C470.175 162.922 482.517 145.592 504.768 141.027C516.94 138.53 527.712 149.247 536.322 156.344C557.829 174.073 579.223 195.295 596.366 217.307C656.23 294.174 685.549 391.208 711.092 483.674C723.552 528.781 737.372 573.262 740.654 620.151C742.315 643.879 752.932 700.658 720.129 709.91C691.033 718.117 652.509 676.948 636.344 658.138C590.194 604.437 568.131 536.157 544.5 471.5C530.631 433.552 522.912 391.873 517.788 351.486C513.207 315.379 510.3 278.535 510.589 242.121C511.034 186.107 526.89 131.483 560.523 86.3446C599.858 33.5526 672.301 -19.5859 741.267 9.91146C840.011 52.1453 912.018 140.487 962.908 231.552C981.286 264.441 994.193 303.142 1002.89 339.845C1004.81 347.987 1007.77 371.523 1002.27 379.517C997.64 386.256 980.456 392.249 972.557 393.302C954.372 395.727 939.496 383.983 927.525 372.011C876.507 320.994 882.798 248.752 882.798 181.465C882.798 146.101 878.736 102.629 913.28 81.9026C952.437 58.4084 1005.06 62.4483 1047 73.6313C1097.25 87.0309 1132.19 137.196 1162.64 174.419C1196.62 215.944 1202.98 272.652 1222.54 321.771C1241.68 369.872 1251.15 421.547 1285.18 462.383C1296.2 475.607 1305.68 491.848 1323.78 495.469C1353.71 501.453 1377.67 458.452 1388.27 434.812C1403.8 400.154 1405.63 357.683 1412.16 320.545C1414.82 305.461 1417.25 282.816 1435.44 277.963C1474.96 267.426 1513.01 319.978 1526.58 350.261C1546.81 395.395 1554.81 440.177 1563.8 488.729C1571.2 528.659 1568.84 581.164 1584.5 618.5C1592.47 637.5 1599.2 658.221 1614 677C1619.52 684 1640.5 706 1668 691C1685 677 1687 659 1687 643.5C1687 575.805 1696.89 508.693 1696 441C1695.36 392.002 1659.04 326.878 1633.96 286C1626.77 274.29 1619.5 263.5 1603.5 247.5C1597.21 241.209 1588.62 243.925 1588.62 254.375C1588.62 294.283 1615.39 330.776 1633.96 364.2C1673.78 435.88 1722.88 514.07 1798.46 552.449C1823.62 565.224 1857.3 577.108 1885.47 579.407C1927.96 582.876 1963.13 551.136 1983.96 517.679C2061.13 393.697 2087.21 246.422 2120.74 106.717" stroke="white" stroke-opacity="0.4" stroke-linecap="round"/>
</svg>
