<svg width="1920" height="610" viewBox="0 0 1920 610" fill="none" xmlns="http://www.w3.org/2000/svg">
<path d="M-46.4873 608.581C-40.2536 590.878 -37.2664 572.317 -32.6861 554.133C-21.1049 508.154 -9.95547 461.5 9.85195 418.2C42.3958 347.058 129.182 329.378 199.666 326.885C248.008 325.176 295.375 330.364 342.405 341.443C380.4 350.393 417.138 360.926 449.223 383.981C475.476 402.845 500.049 427.016 521.821 450.907C542.569 473.676 562.833 499.934 574.379 528.799C584.922 555.157 591.756 587.841 558.593 598.75C522.898 610.492 481.281 591.941 464.725 558.67C453.4 535.911 448.167 510.049 441.471 485.694C434.043 458.675 425.61 431.91 420.108 404.399C406.316 335.442 414.01 263.058 441.471 198.231C456.501 162.75 483.807 110.118 528.816 108.618C553.194 107.805 580.84 119.086 601.603 130.738C634.925 149.436 649.661 179.557 661.724 214.396C686.719 286.585 703.736 364.641 708.232 441.076C710.078 472.468 711.931 535.97 671.649 544.491C643.667 550.41 619.259 523.799 605.101 503.371C564.8 445.222 539.792 372.766 537.513 302.118C535.589 242.5 533.556 176.201 566.628 123.837C581.423 100.411 601.26 79.8802 620.32 59.9353C646.914 32.1074 677.189 14.0642 714.849 5.20305C750.743 -3.24264 784.758 1.53066 818.831 15.1286C864.862 33.4988 908.12 59.6995 949.942 86.0253C1035.78 140.056 1125.59 192.782 1173.13 286.427C1187.48 314.699 1202.44 348.885 1201.11 381.428C1200.77 389.652 1194.38 398.459 1188.72 404.115C1173.01 419.828 1138.7 418.011 1117.92 418.011C1054.65 418.011 1004.63 365.167 972.535 316.109C941.719 269.012 926.362 208.593 948.146 153.992C959.574 125.348 979.922 90.884 1005.9 72.6967C1025.5 58.9823 1049.8 54.6525 1073.21 54.0745C1112.78 53.0975 1153.56 52.8128 1191.75 64.4727C1243.12 80.1574 1291.37 106.432 1330.99 142.743C1381.53 189.062 1429.34 247.079 1459.36 309.303C1478.25 348.456 1490.24 390.579 1468.62 431.34C1463.52 440.964 1457.05 449.884 1447.83 455.917C1439.21 461.551 1425.37 450.133 1420.13 444.101C1408.91 431.191 1408.17 411.642 1403.78 395.891C1397.37 372.916 1387.42 351.084 1381.09 328.019C1373.72 301.175 1370.43 266.578 1401.51 253.342C1414.37 247.861 1429.51 249.153 1442.91 251.451C1485.33 258.728 1527.41 275.079 1567.41 290.586C1632.28 315.742 1694.45 347.579 1755.61 380.578C1827.44 419.329 1898.65 459.657 1968.96 501.102C1997.92 518.168 2027.96 537.398 2052.06 561.128C2058 566.98 2063.72 573.088 2065.1 581.357" stroke="white" stroke-opacity="0.4" stroke-linecap="round"/>
</svg>
