<svg width="1920" height="613" viewBox="0 0 1920 613" fill="none" xmlns="http://www.w3.org/2000/svg">
<path d="M-66 562.714C-60.4315 545.452 -57.5857 527.557 -50.4493 510.795C-31.201 465.583 -4.91035 422.904 30.8156 388.897C88.9351 333.574 155.996 284.142 220.935 237.278C318.895 166.586 415.625 108.141 527 62C618 24.3 617 25 694 4.50007C730 -0.5146 790.319 -8.89078 797.063 41.0133C803.807 90.9174 781.287 141.313 754.173 181.597C702.591 258.234 632.523 324.805 562.298 384.257C538.401 404.488 494 445 466 434C452.227 427 457.552 401.344 460 391.5C471.864 343.793 525.283 302.508 559.915 271.891C619.284 219.405 694.136 184.002 770.727 165.168C820.347 152.966 870.634 137.698 922.221 138.331C943.239 138.588 946.665 154.94 949.811 172.943C960.553 234.411 926.761 275.001 886.605 320.675C868.295 341.501 856.289 354.728 835.5 366.501C832.153 368.396 811 383.755 805.842 368.832C805.842 339.582 848.462 305.415 867 289.001C927.656 235.293 994.078 184.765 1064.69 144.601C1088.19 131.233 1127.55 104.73 1157.36 111.744C1178.5 116.717 1174.54 161.199 1172.29 175.577C1169.49 193.452 1161.91 210.829 1154.98 227.371C1139.97 263.19 1122.74 297.628 1099.55 328.952C1072.81 365.069 1041.76 398.007 1004.99 424.012C999.277 428.052 980.908 442.907 972.385 444.328C970.07 444.714 972.466 439.614 972.886 437.305C976.78 415.888 994.201 398.004 1009.25 383.755C1045.58 349.37 1088.27 319.69 1131.53 294.715C1161.82 277.227 1196.85 260.033 1232.23 256.716C1277.62 252.461 1300.06 286.945 1298.95 328.701C1297.75 373.583 1280.82 414.434 1253.05 449.344C1245.43 458.923 1228.45 476.209 1217.68 484.459C1215.12 486.424 1207.93 489.437 1208.15 486.214C1208.78 477.211 1218.71 466.613 1224.46 461.007C1247.7 438.325 1281.28 426.728 1311.49 417.114C1329.18 411.487 1390.23 387.64 1395.01 423.761C1397.21 440.358 1388.4 458.758 1382.22 472.796C1372.36 495.187 1354.9 527.792 1343.85 549.044C1337.74 560.789 1331.53 572.481 1325.54 584.284C1322 591.252 1318.33 598.17 1315.25 605.353C1314.3 607.571 1311.11 612.758 1313.5 612.376C1319.29 611.446 1323.56 606.32 1328.55 603.221C1340.78 595.618 1352.75 587.571 1365.16 580.271C1426.93 543.965 1486.88 511.673 1551.27 479.191C1717.66 395.256 1887.95 320.11 2060.43 249.694C2074.16 244.086 2088.05 238.85 2101.69 233.014C2105.45 231.403 2110.39 230.815 2112.6 227.371C2115.91 222.225 2100.4 228.319 2094.29 228.625" stroke="white" stroke-opacity="0.4" stroke-linecap="round"/>
</svg>
