<svg width="1920" height="428" viewBox="0 0 1920 428" fill="none" xmlns="http://www.w3.org/2000/svg">
<path d="M-44.4131 426.951C-42.4149 416.295 -35.8868 405.876 -30.2338 396.912C-13.5582 370.47 8.15608 347.514 30.7899 326.121C55.9858 302.305 82.9677 279.671 111.35 259.74C147.246 234.532 186.829 214.966 224.679 192.94C268.383 167.507 311.322 140.698 356.915 118.682C405.335 95.3006 456.531 77.6704 507.005 59.339C582.672 31.8583 658.674 2.82284 740.072 1.67638C780.356 1.109 826.28 -3.21507 864.745 11.3393C891.109 21.3148 924.21 41.0089 927.974 71.9429C930.919 96.1437 916.513 119.351 903.397 138.323C882.282 168.864 855.884 195.53 827.564 219.408C802.484 240.554 774.393 258.345 746.059 274.76C720.699 289.451 695.06 305.33 668.545 317.823C650.95 326.113 632.453 331.92 613.508 336.204C601.317 338.96 577.291 346.758 565.403 339.25C558.577 334.938 558.696 322.655 560.362 316.038C567.637 287.133 585.995 263.535 603.635 240.204C623.838 213.484 644.144 191.013 671.591 171.408C703.421 148.672 737.111 128.092 772.107 110.595C827.514 82.8908 884.959 59.7555 944.779 43.4792C991.038 30.8928 1037.37 28.3366 1085.1 31.1904C1104.16 32.3294 1136.66 31.6685 1152.11 45.4748C1161.39 53.7689 1159.41 72.7022 1157.15 83.1813C1151.6 108.934 1131.76 128.5 1114.51 147.146C1094.08 169.234 1073.64 194.024 1050.23 213.106C1027.34 231.769 999.67 244.366 973.978 258.585C949.576 272.09 925.351 285.687 901.716 300.493C855.405 329.503 801.647 347.257 750.26 365.298C733.967 371.018 725.052 377.24 725.052 356.685C725.052 330.039 753.431 312.469 772.107 296.712C871.834 212.566 996.511 170.298 1120.39 134.332C1147.09 126.583 1174.11 118.087 1201.58 113.536C1230.87 108.683 1260.55 109.334 1290.12 109.334C1319.73 109.334 1348.1 112.41 1374.05 128.24C1388.79 137.235 1395.19 148.785 1396.1 166.052C1397.86 199.462 1360.24 224.162 1340.33 246.506C1306.62 284.334 1259.41 321.079 1206.1 321.079C1198.09 321.079 1192.68 309.546 1191.18 302.908C1185.67 278.475 1210.29 256.835 1226.06 242.515C1265.56 206.623 1309.05 177.195 1359.45 158.279C1390.68 146.557 1424.11 140.2 1456.6 133.072C1510.7 121.203 1565.34 111.738 1619.93 102.402C1702.39 88.2957 1785.25 77.3881 1868.01 65.2208C1899.73 60.5573 1930.83 53.1717 1962.44 48.2056C1966.77 47.524 1985.43 43.7888 1987.96 48.8358" stroke="white" stroke-opacity="0.4" stroke-linecap="round"/>
</svg>
