<svg width="1920" height="737" viewBox="0 0 1920 737" fill="none" xmlns="http://www.w3.org/2000/svg">
<path d="M-174 714.581C-172.914 706.315 -169.385 698.704 -166.635 690.883C-157.215 664.095 -149.037 637.071 -137.912 610.867C-79.8045 473.998 17.5606 336.684 148.876 260.962C163.519 252.518 174.067 248.019 191.692 246.56C205.792 245.393 217.073 258.376 219.389 267.065C226.06 314.077 225.362 335.803 226.06 374.623C226.943 423.757 226.715 471.85 211.625 519.149C191.546 582.084 162.629 652.481 107.927 693.37C96.8916 701.619 19.0134 757.773 8.35428 726.722C3.67034 713.077 6.91099 694.914 10.711 681.521C22.4542 640.132 44.6636 601.257 66.5368 564.496C132.367 453.859 218.281 355.068 316.206 271.494C384.56 213.157 463.527 154.344 550.409 126.529C573.575 119.113 603.134 109.533 628.035 112.486C656.198 115.826 666.215 142.802 670.015 167.488C684.396 260.928 654.216 355.404 618.46 440.595C594.847 496.857 572.924 541.252 539.067 591.558C524.593 613.064 492.651 662.261 459.085 665.137C428.02 667.8 431.41 603.407 431.982 588.632C434.716 518.034 460.42 448.884 495.025 387.788C532.876 320.962 582.621 261.578 635.842 206.399C688.665 151.631 743.52 102.066 813.188 69.6257C885.449 35.9778 971.203 13.0041 1051.37 9.35779C1097.41 7.26345 1140.71 15.263 1161.99 59.5323C1189.5 116.786 1172.12 186.026 1145.49 240.19C1111.21 309.921 1069.77 379.838 1019.99 439.864C1002.94 460.425 982.84 479.101 963.873 497.938C955.535 506.218 944.755 516.866 932.793 519.734C910.165 525.158 910.001 463.321 911.141 452.005C919.055 373.403 960.95 293.912 1009.54 232.73C1025.3 212.881 1043.51 197.069 1062.42 180.361C1090.37 155.653 1116.98 129.119 1147.55 107.513C1218.06 57.6918 1301.56 19.7934 1387.35 6.28588C1421.2 0.956773 1486.05 -10.0445 1501.07 33.2017C1513.28 68.3706 1510.56 120.693 1499.3 155.786C1465.24 261.897 1406.3 349.793 1325.64 427.138C1288.5 462.75 1246.92 498.039 1199.7 519.587C1191.86 523.162 1166.34 541.222 1155.8 535.24C1147.73 530.66 1161.98 509.014 1165.52 505.691C1193 479.952 1239.43 472.353 1275.11 467.072C1539.75 427.909 1809.28 398.613 2077 398.613" stroke="white" stroke-opacity="0.4" stroke-linecap="round"/>
</svg>
