<svg width="1920" height="1433" viewBox="0 0 1920 1433" fill="none" xmlns="http://www.w3.org/2000/svg">
<path d="M-721.439 1076.47C-763.275 1109.37 -834.185 1001.99 -845.981 975.745C-868.834 924.899 -886.912 861.924 -875.465 807.113C-855.152 709.856 -790.436 614.623 -738.468 529.659C-679.086 432.571 -616.744 334.954 -542.505 245.909C-474.302 164.102 -388.617 87.7003 -286.813 39.0542C-233.354 13.5092 -148.582 -12.0481 -87.5459 8.47578C-19.6411 31.3094 30.7531 109.913 62.9211 162.267C125.832 264.657 156.718 371.345 159.25 486.939C163.806 694.868 136.881 915.808 6.496 1095.81C-33.1063 1150.48 -116.494 1196.42 -172.692 1129.76C-252.925 1034.59 -163.025 902.34 -109.15 815.432C-54.4605 727.211 9.19588 646.914 82.7461 570.13C180.933 467.627 282.548 362.117 404.014 280.534C507.7 210.893 622.566 148.235 741.548 101.111C783.311 84.5698 864.222 51.8291 911.84 71.4314C944.276 84.7839 969.394 123.644 984.532 150.576C1017.54 209.307 1029.56 269.33 1033.33 334.496C1044.76 531.848 1012.31 732.49 925.057 915.487C883.924 1001.76 820.406 1111.8 724.264 1160.11C702.334 1171.14 663.222 1184.71 637.085 1174.5C609.768 1163.84 587.74 1125.73 581.677 1101.43C565.231 1035.54 590.786 948.165 619.802 888.056C732.108 655.405 963.861 470.608 1193.97 330.899C1369.7 224.203 1738.03 19.1996 1856.33 289.528C1901.71 393.248 1891.15 511.309 1847.94 613.974C1787.25 758.17 1652.74 875.252 1530.99 981.141C1486.88 1019.51 1441.17 1058.58 1384.08 1081.42C1324.22 1105.38 1257.63 1118.1 1192.44 1124.14C1129.93 1129.93 1173.62 970.403 1182.78 951.462C1217.85 878.97 1280.06 815.815 1336.81 756.299C1419.69 669.365 1506.92 585.745 1604.7 511.671C1832.67 338.965 2112.74 189.994 2419.81 183.627C2561.32 180.694 2721.5 195.692 2791.92 318.982C2828.57 383.162 2827.23 446.396 2827.75 517.742C2828.15 571.512 2829.92 626.677 2813.01 678.954C2802.63 711.038 2787.17 743.509 2772.09 774.062C2753.49 811.748 2726.57 839.917 2698.64 872.093C2666.09 909.571 2634.92 947.254 2600.02 983.164C2519.9 1065.62 2430.57 1144.21 2329.59 1206.88C2200.27 1287.14 2041.86 1336.87 1893.94 1383.16C1833.87 1401.95 1769.9 1404.75 1710.43 1422.28C1687.27 1429.11 1664.19 1427.19 1641.81 1432.85C1627.83 1436.38 1610.75 1448.81 1595.55 1448.81C1556.07 1448.81 1522.21 1465 1483.72 1465" stroke="white" stroke-opacity="0.4" stroke-linecap="round"/>
</svg>
