<svg width="1920" height="672" viewBox="0 0 1920 672" fill="none" xmlns="http://www.w3.org/2000/svg">
<path d="M2214 449.023C2211.05 393.117 2160.77 342.722 2117.58 311.84C2055.6 267.526 1987.71 226.226 1916.59 197.166C1872.9 179.316 1830.25 175.265 1783.23 175.265C1753.51 175.265 1686.33 177.703 1676.47 216.025C1668.56 246.782 1687.13 275.619 1707.15 297.544C1744.07 337.965 1797.06 378.151 1853.98 384.234C1882.85 387.32 1970.79 394.842 1971.69 349.254C1972.04 331.589 1960.98 319.701 1950.4 306.517C1934.84 287.118 1919.36 270.176 1896.71 258.457C1859.15 239.021 1817.81 226.687 1776.96 215.721C1700.84 195.281 1623.23 178.947 1544.36 173.136C1482.94 168.611 1408.71 156.242 1350.42 182.566C1309.2 201.18 1239.83 238.063 1234.11 286.898C1232.55 300.297 1238.29 313.666 1241.94 326.289C1249.51 352.436 1256.68 377.982 1273.09 400.507C1300.59 438.263 1341.39 459.193 1388.77 462.103C1428.75 464.558 1465.29 462.952 1496.62 436.4C1523.63 413.504 1523.73 375.634 1510.86 345.908C1487.07 290.947 1430.55 264.152 1377.81 240.359C1250.19 182.789 1143.59 232.066 978.5 115.501C897 69.4367 867.5 30.5 772.5 9.00038C714.5 -4.12501 625 -14.9994 508 106C432.095 184.5 473.5 299 483.5 330C517 406 530.429 404.333 566.5 434.5C626.86 484.981 705.853 483.935 780.8 470.62C809.847 465.459 853.483 454.696 859.535 420.887C865.829 385.726 835.783 347.899 812.419 324.616C737.564 250.021 635.518 213.642 531.602 197.47C471.988 188.193 398.571 177.248 344.703 211.158C280.479 251.587 261.356 327.099 268.629 397.77C282.461 532.163 387.776 653.23 530.663 669.701C570.88 674.337 633.756 668.597 640.548 618.447C643.459 596.945 622.062 574.371 608.615 560.046C572.327 521.39 527.393 491.298 479.164 468.49C413.913 437.633 345.757 419.285 273.638 411.914C175.196 401.853 74.4617 399.498 -24.3972 404.918C-105.386 409.358 -185.327 418.382 -263.264 440.811C-277.933 445.032 -298.331 449.377 -311.632 457.844C-316.77 461.115 -305.848 462.317 -304.901 462.711" stroke="white" stroke-opacity="0.4" stroke-linecap="round"/>
</svg>
