<svg width="1920" height="1080" viewBox="0 0 1920 1080" fill="none" xmlns="http://www.w3.org/2000/svg">
<path d="M-35.8906 751.509C-35.8906 724.947 -25.3899 703.601 -11.3817 681.332C23.8833 625.269 65.1465 571.807 111.011 524.079C182.039 450.164 266.439 393.673 362.341 356.931C404.622 340.733 464.376 315.924 501.174 353.43C534.198 387.088 571.97 430.61 584.9 476.583C610.089 566.142 589.322 671.732 555.672 756.076C533.201 812.399 502.474 865.352 474.382 918.961C455.025 955.901 437.526 998.689 408.01 1029.18C381.812 1056.24 331.062 1076.57 292.62 1065.41C259.364 1055.75 262.768 991.547 269.481 966.761C295.555 870.49 364.931 784.476 423.537 706.602C491.61 616.148 574.774 534.408 677.303 484.043C716.91 464.586 758.509 453.354 801.979 446.442C827.702 442.352 854.596 438.905 879.159 449.791C928.86 471.818 940.536 518.632 942.03 568.682C943.664 623.426 930.698 674.012 914.02 725.935C891.509 796.016 865.925 865.729 829.837 930.074C804.547 975.167 774.625 1017.39 745.35 1059.93C721.187 1095.04 697.96 1132.98 664.973 1160.7C634.772 1186.08 596.317 1209.16 562.979 1176.99C507.65 1123.6 531.845 1021.25 553.236 958.845C573.635 899.339 607.515 845.945 642.747 794.286C690.322 724.529 745.98 662.296 808.068 605.065C910.891 510.286 1033.43 429.92 1168.85 390.726C1213.37 377.842 1259.48 372.257 1305.71 370.936C1338.53 369.998 1374.55 369.859 1405.42 382.81C1428.91 392.669 1443.76 413.582 1458.39 433.35C1476.65 458.023 1492.75 484.38 1503.45 513.271C1523.68 567.881 1519.14 629.4 1516.24 686.507C1511.42 781.493 1484.58 870.046 1438.91 953.517C1396.56 1030.9 1353.18 1120.51 1279.98 1173.49C1229.5 1210.03 1168.18 1236.28 1126.53 1170.75C1089.14 1111.91 1099.94 1019.13 1114.81 955.649C1141.35 842.336 1203.95 731.482 1273.89 639.469C1347.4 542.747 1444.82 462.212 1547.9 398.794C1646.38 338.208 1758.93 288.646 1874.28 272.596C1923.26 265.781 1998.96 260.401 2026.82 312.328C2058.05 370.557 2054.23 458.078 2046.61 521.034C2026 691.087 1920.78 835.238 1794.21 945.145C1754.29 979.807 1695.36 1028.74 1638.33 1025.83C1567.41 1022.2 1546.16 934.18 1536.33 877.859C1519.12 779.206 1532.69 675.688 1559.93 580.251C1611.73 398.74 1742.88 244.681 1869.71 110.015C1965.3 8.53159 2077.05 -101.942 2205.38 -162.627C2215.13 -167.237 2225.21 -172.037 2235.67 -174.653" stroke="white" stroke-opacity="0.5" stroke-linecap="round"/>
</svg>
