<svg width="155" height="24" viewBox="0 0 155 24" fill="none" xmlns="http://www.w3.org/2000/svg">
<mask id="mask0_151_62" style="mask-type:luminance" maskUnits="userSpaceOnUse" x="0" y="0" width="24" height="24">
<path d="M23.5 23.5V0.5H0.5V23.5H23.5Z" fill="white" stroke="white"/>
</mask>
<g mask="url(#mask0_151_62)">
<path d="M13.6606 0.474305C19.1033 0.474305 23.5311 4.90212 23.5311 10.3447" stroke="white" stroke-width="1.2" stroke-miterlimit="10" stroke-linecap="round" stroke-linejoin="round"/>
<path d="M13.6606 3.29426C17.548 3.29426 20.7111 6.45738 20.7111 10.3447" stroke="white" stroke-width="1.2" stroke-miterlimit="10" stroke-linecap="round" stroke-linejoin="round"/>
<path d="M13.6606 6.11477C15.9932 6.11477 17.8906 8.01223 17.8906 10.3447" stroke="white" stroke-width="1.2" stroke-miterlimit="10" stroke-linecap="round" stroke-linejoin="round"/>
<path d="M13.6606 8.93473C14.4392 8.93473 15.0706 9.56618 15.0706 10.3447" stroke="white" stroke-width="1.2" stroke-miterlimit="10" stroke-linecap="round" stroke-linejoin="round"/>
<path d="M8.31641 15.0943C8.24393 15.0943 8.18516 15.1531 8.18516 15.2256C8.18516 15.2981 8.24389 15.3568 8.31641 15.3568C8.38893 15.3568 8.44766 15.2981 8.44766 15.2256C8.44766 15.1531 8.38889 15.0943 8.31641 15.0943Z" fill="white" stroke="white" stroke-width="1.2"/>
<path d="M6.94664 13.6223C6.64868 13.2309 6.36691 12.8275 6.10204 12.413C5.75334 11.867 5.85881 11.1437 6.31673 10.6857L7.90818 9.09427C8.25079 8.75213 8.25079 8.19666 7.90818 7.85443L4.16282 4.10916C3.82064 3.76646 3.26521 3.76646 2.92303 4.10916L1.97517 5.05693C0.436777 6.59495 0.0209957 8.9424 0.986621 10.8915C2.70459 14.3597 6.2399 19.6763 13.0508 23.0161C15.006 23.9743 17.3643 23.5679 18.9036 22.0285L19.873 21.0591C20.2156 20.717 20.2156 20.1615 19.873 19.8188L16.1277 16.074C15.7855 15.7313 15.2301 15.7313 14.8879 16.074L13.2965 17.6654C12.8384 18.1233 12.1152 18.2288 11.5691 17.8801C10.9795 17.5033 10.4125 17.0925 9.87088 16.6496" stroke="white" stroke-width="1.2" stroke-miterlimit="10" stroke-linecap="round" stroke-linejoin="round"/>
</g>
<path d="M38.2773 15.6676V8.46591H39.7102V15.6676H38.2773ZM35.3956 12.7805V11.353H42.5973V12.7805H35.3956ZM44.4409 17.5L49.203 8.08239V8.00249H43.6952V6.59091H50.9075V8.05043L46.1615 17.5H44.4409ZM59.1571 6.44176C59.6436 6.44531 60.123 6.53409 60.5953 6.7081C61.0676 6.8821 61.4938 7.16619 61.8737 7.56037C62.2573 7.95455 62.5627 8.48722 62.7899 9.15838C63.0208 9.82599 63.1379 10.657 63.1415 11.6513C63.1415 12.6065 63.0456 13.457 62.8539 14.2028C62.6621 14.945 62.3869 15.5717 62.0282 16.0831C61.6731 16.5945 61.2416 16.9833 60.7338 17.2496C60.226 17.516 59.6543 17.6491 59.0186 17.6491C58.3688 17.6491 57.7917 17.5213 57.2874 17.2656C56.7832 17.0099 56.373 16.6566 56.057 16.2056C55.7409 15.7511 55.5438 15.229 55.4657 14.6396H57.0904C57.1969 15.1083 57.4135 15.4883 57.7402 15.7795C58.0705 16.0671 58.4966 16.2109 59.0186 16.2109C59.8176 16.2109 60.4409 15.8629 60.8883 15.1669C61.3357 14.4673 61.5612 13.4908 61.5648 12.2372H61.4796C61.2949 12.5426 61.0641 12.8054 60.7871 13.0256C60.5137 13.2457 60.2065 13.4162 59.8656 13.5369C59.5247 13.6577 59.1607 13.718 58.7736 13.718C58.145 13.718 57.5733 13.5636 57.0584 13.2546C56.5435 12.9457 56.1333 12.5213 55.8279 11.9815C55.5225 11.4418 55.3698 10.8256 55.3698 10.1332C55.3698 9.44425 55.5261 8.81925 55.8386 8.25817C56.1546 7.69709 56.595 7.2532 57.1596 6.92649C57.7278 6.59624 58.3936 6.43466 59.1571 6.44176ZM59.1624 7.8267C58.747 7.8267 58.3723 7.92969 58.0385 8.13565C57.7083 8.33807 57.4472 8.61328 57.2555 8.96129C57.0637 9.30575 56.9678 9.68928 56.9678 10.1119C56.9678 10.5344 57.0602 10.918 57.2448 11.2624C57.433 11.6033 57.6887 11.875 58.0119 12.0774C58.3386 12.2763 58.7115 12.3757 59.1305 12.3757C59.443 12.3757 59.7342 12.3153 60.0041 12.1946C60.274 12.0739 60.5101 11.907 60.7125 11.6939C60.9149 11.4773 61.073 11.2322 61.1866 10.9588C61.3002 10.6854 61.357 10.3977 61.357 10.0959C61.357 9.6946 61.2612 9.32173 61.0694 8.97727C60.8812 8.63281 60.622 8.35582 60.2917 8.14631C59.9615 7.93324 59.585 7.8267 59.1624 7.8267ZM68.2637 17.6811C67.4221 17.6776 66.703 17.4556 66.1064 17.0153C65.5098 16.5749 65.0535 15.9339 64.7374 15.0923C64.4214 14.2507 64.2634 13.2369 64.2634 12.0508C64.2634 10.8683 64.4214 9.85795 64.7374 9.01989C65.057 8.18182 65.5151 7.54261 66.1117 7.10227C66.7119 6.66193 67.4292 6.44176 68.2637 6.44176C69.0982 6.44176 69.8138 6.66371 70.4104 7.1076C71.007 7.54794 71.4633 8.18714 71.7793 9.02521C72.0989 9.85973 72.2587 10.8683 72.2587 12.0508C72.2587 13.2404 72.1007 14.256 71.7847 15.0977C71.4686 15.9357 71.0123 16.5767 70.4157 17.0206C69.8191 17.4609 69.1018 17.6811 68.2637 17.6811ZM68.2637 16.2589C69.0023 16.2589 69.5794 15.8984 69.9949 15.1776C70.4139 14.4567 70.6234 13.4144 70.6234 12.0508C70.6234 11.1452 70.5276 10.38 70.3358 9.75497C70.1476 9.12642 69.8759 8.65057 69.5208 8.32741C69.1692 8.00071 68.7502 7.83736 68.2637 7.83736C67.5286 7.83736 66.9516 8.19957 66.5325 8.92401C66.1135 9.64844 65.9022 10.6907 65.8987 12.0508C65.8987 12.9599 65.9928 13.7287 66.181 14.3572C66.3727 14.9822 66.6444 15.4563 66.996 15.7795C67.3475 16.0991 67.7701 16.2589 68.2637 16.2589ZM77.1759 6.44176C77.6624 6.44531 78.1418 6.53409 78.6141 6.7081C79.0864 6.8821 79.5125 7.16619 79.8925 7.56037C80.276 7.95455 80.5814 8.48722 80.8087 9.15838C81.0395 9.82599 81.1567 10.657 81.1602 11.6513C81.1602 12.6065 81.0644 13.457 80.8726 14.2028C80.6808 14.945 80.4056 15.5717 80.047 16.0831C79.6919 16.5945 79.2604 16.9833 78.7526 17.2496C78.2448 17.516 77.673 17.6491 77.0374 17.6491C76.3875 17.6491 75.8105 17.5213 75.3062 17.2656C74.8019 17.0099 74.3918 16.6566 74.0757 16.2056C73.7597 15.7511 73.5626 15.229 73.4845 14.6396H75.1091C75.2156 15.1083 75.4323 15.4883 75.759 15.7795C76.0892 16.0671 76.5154 16.2109 77.0374 16.2109C77.8364 16.2109 78.4596 15.8629 78.907 15.1669C79.3545 14.4673 79.58 13.4908 79.5835 12.2372H79.4983C79.3137 12.5426 79.0828 12.8054 78.8058 13.0256C78.5324 13.2457 78.2252 13.4162 77.8843 13.5369C77.5434 13.6577 77.1794 13.718 76.7923 13.718C76.1638 13.718 75.5921 13.5636 75.0771 13.2546C74.5622 12.9457 74.1521 12.5213 73.8467 11.9815C73.5413 11.4418 73.3886 10.8256 73.3886 10.1332C73.3886 9.44425 73.5448 8.81925 73.8573 8.25817C74.1734 7.69709 74.6137 7.2532 75.1784 6.92649C75.7465 6.59624 76.4124 6.43466 77.1759 6.44176ZM77.1812 7.8267C76.7657 7.8267 76.3911 7.92969 76.0573 8.13565C75.727 8.33807 75.466 8.61328 75.2742 8.96129C75.0825 9.30575 74.9866 9.68928 74.9866 10.1119C74.9866 10.5344 75.0789 10.918 75.2636 11.2624C75.4518 11.6033 75.7075 11.875 76.0306 12.0774C76.3573 12.2763 76.7302 12.3757 77.1492 12.3757C77.4617 12.3757 77.7529 12.3153 78.0228 12.1946C78.2927 12.0739 78.5289 11.907 78.7313 11.6939C78.9337 11.4773 79.0917 11.2322 79.2053 10.9588C79.319 10.6854 79.3758 10.3977 79.3758 10.0959C79.3758 9.6946 79.2799 9.32173 79.0882 8.97727C78.8999 8.63281 78.6407 8.35582 78.3105 8.14631C77.9802 7.93324 77.6038 7.8267 77.1812 7.8267ZM89.9931 6.59091V17.5H88.3418V8.24219H88.2779L85.6678 9.94673V8.37003L88.3898 6.59091H89.9931ZM95.9449 17.6491C95.2773 17.6491 94.6772 17.5213 94.1445 17.2656C93.6154 17.0064 93.1928 16.6513 92.8768 16.2003C92.5607 15.7493 92.392 15.2344 92.3707 14.6555H93.9687C94.0078 15.1243 94.2155 15.5096 94.592 15.8114C94.9684 16.1133 95.4194 16.2642 95.9449 16.2642C96.364 16.2642 96.7351 16.1683 97.0582 15.9766C97.3849 15.7812 97.6406 15.5131 97.8253 15.1722C98.0135 14.8313 98.1076 14.4425 98.1076 14.0057C98.1076 13.5618 98.0117 13.1658 97.8199 12.8178C97.6282 12.4698 97.3636 12.1964 97.0263 11.9975C96.6925 11.7987 96.3089 11.6974 95.8757 11.6939C95.5454 11.6939 95.2134 11.7507 94.8796 11.8643C94.5458 11.978 94.2759 12.1271 94.0699 12.3118L92.5625 12.0881L93.1751 6.59091H99.1729V8.00249H94.544L94.1978 11.0547H94.2617C94.4748 10.8487 94.7571 10.6765 95.1086 10.538C95.4638 10.3995 95.8437 10.3303 96.2486 10.3303C96.9126 10.3303 97.5039 10.4883 98.0224 10.8043C98.5444 11.1204 98.9545 11.5518 99.2528 12.0987C99.5547 12.642 99.7038 13.267 99.7003 13.9737C99.7038 14.6804 99.544 15.3107 99.2209 15.8647C98.9013 16.4187 98.4574 16.8555 97.8892 17.1751C97.3246 17.4911 96.6765 17.6491 95.9449 17.6491ZM105.185 6.59091V17.5H103.533V8.24219H103.469L100.859 9.94673V8.37003L103.581 6.59091H105.185ZM112.378 11.353V12.7379H107.541V11.353H112.378ZM117.677 17.6811C116.835 17.6776 116.116 17.4556 115.52 17.0153C114.923 16.5749 114.467 15.9339 114.151 15.0923C113.835 14.2507 113.677 13.2369 113.677 12.0508C113.677 10.8683 113.835 9.85795 114.151 9.01989C114.47 8.18182 114.928 7.54261 115.525 7.10227C116.125 6.66193 116.842 6.44176 117.677 6.44176C118.512 6.44176 119.227 6.66371 119.824 7.1076C120.42 7.54794 120.877 8.18714 121.193 9.02521C121.512 9.85973 121.672 10.8683 121.672 12.0508C121.672 13.2404 121.514 14.256 121.198 15.0977C120.882 15.9357 120.426 16.5767 119.829 17.0206C119.232 17.4609 118.515 17.6811 117.677 17.6811ZM117.677 16.2589C118.416 16.2589 118.993 15.8984 119.408 15.1776C119.827 14.4567 120.037 13.4144 120.037 12.0508C120.037 11.1452 119.941 10.38 119.749 9.75497C119.561 9.12642 119.289 8.65057 118.934 8.32741C118.583 8.00071 118.163 7.83736 117.677 7.83736C116.942 7.83736 116.365 8.19957 115.946 8.92401C115.527 9.64844 115.315 10.6907 115.312 12.0508C115.312 12.9599 115.406 13.7287 115.594 14.3572C115.786 14.9822 116.058 15.4563 116.409 15.7795C116.761 16.0991 117.183 16.2589 117.677 16.2589ZM126.648 17.6491C125.884 17.6491 125.21 17.5178 124.624 17.255C124.041 16.9922 123.585 16.63 123.255 16.1683C122.924 15.7067 122.761 15.1811 122.765 14.5916C122.761 14.13 122.855 13.7056 123.047 13.3185C123.242 12.9279 123.507 12.603 123.841 12.3438C124.174 12.081 124.547 11.9141 124.959 11.843V11.7791C124.416 11.6477 123.981 11.3565 123.654 10.9055C123.327 10.4545 123.166 9.93608 123.169 9.35014C123.166 8.79261 123.313 8.29545 123.612 7.85866C123.913 7.41832 124.327 7.07209 124.853 6.81996C125.378 6.56783 125.977 6.44176 126.648 6.44176C127.312 6.44176 127.905 6.5696 128.427 6.82528C128.952 7.07741 129.366 7.42365 129.668 7.86399C129.97 8.30078 130.123 8.79616 130.126 9.35014C130.123 9.93608 129.956 10.4545 129.625 10.9055C129.295 11.3565 128.865 11.6477 128.336 11.7791V11.843C128.745 11.9141 129.112 12.081 129.439 12.3438C129.769 12.603 130.032 12.9279 130.227 13.3185C130.426 13.7056 130.527 14.13 130.531 14.5916C130.527 15.1811 130.36 15.7067 130.03 16.1683C129.7 16.63 129.242 16.9922 128.656 17.255C128.074 17.5178 127.404 17.6491 126.648 17.6491ZM126.648 16.3015C127.099 16.3015 127.489 16.2269 127.82 16.0778C128.15 15.9251 128.406 15.7138 128.587 15.4439C128.768 15.1705 128.86 14.8509 128.864 14.4851C128.86 14.1051 128.761 13.7695 128.565 13.4783C128.374 13.1871 128.113 12.9581 127.782 12.7912C127.452 12.6243 127.074 12.5408 126.648 12.5408C126.218 12.5408 125.836 12.6243 125.503 12.7912C125.169 12.9581 124.906 13.1871 124.714 13.4783C124.522 13.7695 124.428 14.1051 124.432 14.4851C124.428 14.8509 124.515 15.1705 124.693 15.4439C124.874 15.7138 125.131 15.9251 125.465 16.0778C125.799 16.2269 126.193 16.3015 126.648 16.3015ZM126.648 11.2251C127.01 11.2251 127.331 11.1523 127.612 11.0067C127.892 10.8612 128.113 10.6587 128.272 10.3995C128.436 10.1403 128.519 9.83665 128.523 9.48864C128.519 9.14773 128.438 8.84943 128.278 8.59375C128.121 8.33807 127.903 8.14098 127.623 8.00249C127.342 7.86044 127.017 7.78942 126.648 7.78942C126.271 7.78942 125.941 7.86044 125.657 8.00249C125.376 8.14098 125.158 8.33807 125.002 8.59375C124.846 8.84943 124.769 9.14773 124.773 9.48864C124.769 9.83665 124.847 10.1403 125.007 10.3995C125.167 10.6587 125.387 10.8612 125.668 11.0067C125.952 11.1523 126.278 11.2251 126.648 11.2251ZM136.681 11.353V12.7379H131.845V11.353H136.681ZM138.184 17.5L142.946 8.08239V8.00249H137.438V6.59091H144.651V8.05043L139.904 17.5H138.184ZM149.466 17.6811C148.625 17.6776 147.906 17.4556 147.309 17.0153C146.713 16.5749 146.256 15.9339 145.94 15.0923C145.624 14.2507 145.466 13.2369 145.466 12.0508C145.466 10.8683 145.624 9.85795 145.94 9.01989C146.26 8.18182 146.718 7.54261 147.314 7.10227C147.915 6.66193 148.632 6.44176 149.466 6.44176C150.301 6.44176 151.017 6.66371 151.613 7.1076C152.21 7.54794 152.666 8.18714 152.982 9.02521C153.302 9.85973 153.461 10.8683 153.461 12.0508C153.461 13.2404 153.303 14.256 152.987 15.0977C152.671 15.9357 152.215 16.5767 151.618 17.0206C151.022 17.4609 150.305 17.6811 149.466 17.6811ZM149.466 16.2589C150.205 16.2589 150.782 15.8984 151.198 15.1776C151.617 14.4567 151.826 13.4144 151.826 12.0508C151.826 11.1452 151.73 10.38 151.539 9.75497C151.35 9.12642 151.079 8.65057 150.724 8.32741C150.372 8.00071 149.953 7.83736 149.466 7.83736C148.731 7.83736 148.154 8.19957 147.735 8.92401C147.316 9.64844 147.105 10.6907 147.101 12.0508C147.101 12.9599 147.195 13.7287 147.384 14.3572C147.575 14.9822 147.847 15.4563 148.199 15.7795C148.55 16.0991 148.973 16.2589 149.466 16.2589Z" fill="#34344E"/>
</svg>
